<svg width="355" height="89" viewBox="0 0 355 89" fill="none" xmlns="http://www.w3.org/2000/svg">
<g clip-path="url(#clip0_1008_7)">
<path d="M20.1309 79L11.6836 10.6406H19.8867L23.4512 46.8223C24.0859 53.5117 24.4277 58.4434 24.7207 66.2559H25.6973C25.9902 58.4434 26.2832 53.4629 26.918 46.8223L30.3848 10.6406H39.2715L42.7871 46.8223C43.373 53.4629 43.666 58.4434 43.9102 66.2559H44.8867C45.2773 58.4434 45.6191 53.5117 46.2539 46.8223L49.8184 10.6406H57.7285L49.4766 79H39.8086L36.8301 46.8223C36.1465 39.1074 35.707 33.9805 35.2676 25.9727H34.291C33.8516 33.9805 33.4609 39.1074 32.7285 46.8223L29.7012 79H20.1309ZM75.502 67.0371V60.4453L83.168 61.5684V67.5254C83.168 76.0703 78.7246 79.8301 71.4004 79.8301C63.4414 79.8301 59.5352 75.3379 59.5352 66.6465V40.1328C59.5352 31.3926 63.5879 26.9004 71.5957 26.9004C79.3105 26.9004 83.168 31.1973 83.168 39.498C83.168 43.8926 83.168 50.6309 83.1191 55.416H67.4941V67.2812C67.4941 71.6758 68.6172 73.8242 71.4004 73.8242C73.793 73.8242 75.502 72.0176 75.502 67.0371ZM71.498 32.9062C68.8125 32.9062 67.4941 35.1035 67.4941 39.4492V49.3613H75.209V38.7656C75.209 34.8594 73.9883 32.9062 71.498 32.9062ZM88.3926 79V10.6406H100.453C110.219 10.6406 114.76 16.1582 114.76 27.6328V62.1055C114.76 73.5312 110.219 79 100.453 79H88.3926ZM96.6445 72.457H100.014C104.604 72.457 106.508 69.5762 106.508 63.2773V26.4609C106.508 20.0645 104.604 17.1836 100.014 17.1836H96.6445V72.457ZM135.463 67.0371V60.4453L143.129 61.5684V67.5254C143.129 76.0703 138.686 79.8301 131.361 79.8301C123.402 79.8301 119.496 75.3379 119.496 66.6465V40.1328C119.496 31.3926 123.549 26.9004 131.557 26.9004C139.271 26.9004 143.129 31.1973 143.129 39.498C143.129 43.8926 143.129 50.6309 143.08 55.416H127.455V67.2812C127.455 71.6758 128.578 73.8242 131.361 73.8242C133.754 73.8242 135.463 72.0176 135.463 67.0371ZM131.459 32.9062C128.773 32.9062 127.455 35.1035 127.455 39.4492V49.3613H135.17V38.7656C135.17 34.8594 133.949 32.9062 131.459 32.9062ZM158.119 79.7812C150.697 79.7812 146.742 75.7773 146.742 66.8906V62.9844L154.262 61.1777V66.6465C154.262 71.7734 155.482 73.8242 158.119 73.8242C160.365 73.8242 161.488 72.2617 161.488 69.0391C161.488 65.0352 160.072 61.5195 156.361 56.7344L152.748 52.0469C149.037 47.2617 147.035 43.0137 147.035 38.082C147.035 30.6602 150.6 26.9492 157.533 26.9492C164.76 26.9492 168.471 30.6113 168.471 38.6191V42.0859L160.902 43.7949V38.668C160.902 34.3223 159.779 32.8574 157.582 32.8574C155.531 32.8574 154.457 34.127 154.457 36.7148C154.457 40.2305 155.629 43.1602 159.242 47.7012L162.855 52.2422C166.469 56.7832 169.252 61.3242 169.252 68.0137C169.252 75.8262 165.395 79.7812 158.119 79.7812ZM172.816 21.9199V12.9844H181.85V21.9199H172.816ZM173.305 79V27.7305H181.312V79H173.305Z" fill="white"/>
<path d="M254.104 37V35.2568C258.223 28.0791 260.018 22.4736 260.018 17.2271C260.018 15.6719 259.573 15.0054 258.667 15.0054C257.625 15.0054 257.095 15.7402 257.129 18.4062V21.9097L254.361 21.4141V18.2354C254.344 14.3218 255.831 12.7837 258.685 12.7837C261.419 12.7837 262.837 14.168 262.837 17.2783C262.837 22.5933 261.163 27.8057 257.42 34.5391L257.505 34.6929C258.052 34.6416 258.479 34.6416 258.992 34.6416H263.008V37H254.104ZM266.119 37C266.204 26.3188 266.973 20.9868 268.819 15.4326H263.829V13.0742H271.553V15.0225C269.639 20.6108 268.956 26.0625 269.024 37H266.119ZM280.696 37.2905C277.466 37.2905 275.86 35.4619 275.86 31.7021V18.4062C275.86 14.6294 277.466 12.7837 280.696 12.7837C283.943 12.7837 285.55 14.6294 285.55 18.4062V31.7021C285.55 35.4619 283.943 37.2905 280.696 37.2905ZM280.713 35.0347C282.029 35.0347 282.662 34.0435 282.662 31.9414V18.1841C282.662 16.0479 282.029 15.0225 280.713 15.0225C279.397 15.0225 278.748 16.0479 278.748 18.1841V31.9414C278.748 34.0435 279.397 35.0347 280.713 35.0347ZM291.343 37.2905C288.558 37.2905 287.208 35.7012 287.208 32.5396V23.4648C287.208 20.3374 288.558 18.7651 291.36 18.7651C293.975 18.7651 295.428 20.1152 295.428 23.2427V25.6353L292.659 26.0796V23.4648C292.659 21.5337 292.198 20.8672 291.377 20.8672C290.472 20.8672 290.027 21.6191 290.027 23.2085V32.813C290.027 34.4023 290.455 35.1714 291.377 35.1714C292.215 35.1714 292.676 34.5391 292.676 32.9326V29.8906L295.479 30.3179V32.7275C295.479 35.9233 293.958 37.2905 291.343 37.2905ZM300.845 37.2222C298.829 37.2222 297.837 36.2139 297.837 33.9238V21.2773H296.231V19.0557H297.837V14.9541L300.623 13.9287V19.0557H303.169V21.2773H300.623V33.7017C300.623 34.5562 300.948 34.8979 301.648 34.8979C302.093 34.8979 302.605 34.7612 303.187 34.5391L302.964 36.7095C302.417 37.0342 301.648 37.2222 300.845 37.2222ZM308.228 37.2905C305.459 37.2905 304.058 35.7012 304.058 32.625V23.4478C304.058 20.3716 305.459 18.7651 308.228 18.7651C310.997 18.7651 312.415 20.3716 312.415 23.4478V32.625C312.415 35.7012 310.979 37.2905 308.228 37.2905ZM308.228 35.1372C309.151 35.1372 309.595 34.3853 309.595 32.813V23.2598C309.595 21.6533 309.151 20.9014 308.228 20.9014C307.322 20.9014 306.878 21.6533 306.878 23.2598V32.813C306.878 34.3853 307.322 35.1372 308.228 35.1372ZM319.542 37.2051C317.935 37.2051 317.115 36.2651 316.431 34.3853L316.106 34.4878C316.551 35.8721 316.688 36.5898 316.67 37H314.107V13.0742H316.91V17.5347C316.91 18.9019 316.739 19.8931 316.175 21.5679L316.482 21.6875C317.098 19.8076 317.986 18.8506 319.593 18.8506C321.404 18.8506 322.43 20.3032 322.43 23.0889V33.0352C322.43 35.7866 321.387 37.2051 319.542 37.2051ZM318.431 35.103C319.234 35.103 319.627 34.334 319.627 32.7617V23.2939C319.627 21.7217 319.234 20.9526 318.431 20.9526C317.457 20.9526 316.91 22.2515 316.91 24.5415V31.5312C316.91 33.8042 317.474 35.103 318.431 35.103ZM329.607 32.813V30.5059L332.291 30.8989V32.9839C332.291 35.9746 330.735 37.2905 328.172 37.2905C325.386 37.2905 324.019 35.7183 324.019 32.6763V23.3965C324.019 20.3374 325.438 18.7651 328.24 18.7651C330.94 18.7651 332.291 20.269 332.291 23.1743C332.291 24.7124 332.291 27.0708 332.273 28.7456H326.805V32.8984C326.805 34.4365 327.198 35.1885 328.172 35.1885C329.009 35.1885 329.607 34.5562 329.607 32.813ZM328.206 20.8672C327.266 20.8672 326.805 21.6362 326.805 23.1572V26.6265H329.505V22.918C329.505 21.5508 329.078 20.8672 328.206 20.8672ZM334.034 37V19.0557H336.836C336.871 19.7051 336.751 20.3716 336.272 21.8242L336.563 21.9438C337.435 19.6025 338.204 18.8848 339.913 18.7139L340.34 21.4312L339.451 21.5679C337.486 21.8755 336.836 23.106 336.836 26.6436V37H334.034ZM276.817 79V77.2568C280.936 70.0791 282.73 64.4736 282.73 59.2271C282.73 57.6719 282.286 57.0054 281.38 57.0054C280.337 57.0054 279.808 57.7402 279.842 60.4062V63.9097L277.073 63.4141V60.2354C277.056 56.3218 278.543 54.7837 281.397 54.7837C284.131 54.7837 285.55 56.168 285.55 59.2783C285.55 64.5933 283.875 69.8057 280.132 76.5391L280.218 76.6929C280.765 76.6416 281.192 76.6416 281.705 76.6416H285.721V79H276.817ZM291.753 79.2905C288.677 79.2905 287.156 77.4448 287.156 73.7534V60.3208C287.156 56.6294 288.677 54.7837 291.753 54.7837C294.83 54.7837 296.368 56.6294 296.368 60.3208V73.7534C296.368 77.4448 294.83 79.2905 291.753 79.2905ZM291.753 77.0347C292.95 77.0347 293.531 76.0435 293.531 73.9927V60.0815C293.531 58.0137 292.95 57.0225 291.753 57.0225C290.557 57.0225 289.993 58.0137 289.993 60.0815V73.9927C289.993 76.0435 290.557 77.0347 291.753 77.0347ZM297.735 79V77.2568C301.854 70.0791 303.648 64.4736 303.648 59.2271C303.648 57.6719 303.204 57.0054 302.298 57.0054C301.255 57.0054 300.726 57.7402 300.76 60.4062V63.9097L297.991 63.4141V60.2354C297.974 56.3218 299.461 54.7837 302.315 54.7837C305.049 54.7837 306.468 56.168 306.468 59.2783C306.468 64.5933 304.793 69.8057 301.05 76.5391L301.136 76.6929C301.683 76.6416 302.11 76.6416 302.623 76.6416H306.639V79H297.735ZM312.586 79.2905C309.493 79.2905 307.972 77.667 307.972 74.0269V70.4893L310.809 69.9937V73.8218C310.809 76.0605 311.355 77.0518 312.586 77.0518C313.594 77.0518 314.09 76.3511 314.09 74.8813V69.7886C314.09 68.4043 313.492 67.7549 312.278 67.6865L311.167 67.6353V65.4648L312.244 65.4136C313.423 65.3623 313.953 64.73 313.953 63.4653V59.0562C313.953 57.6548 313.458 56.9712 312.5 56.9712C311.39 56.9712 310.877 57.9453 310.877 60.0132V63.3799L308.108 62.9014V59.8423C308.108 56.356 309.595 54.7837 312.535 54.7837C315.32 54.7837 316.705 56.2021 316.705 59.0391V63.1406C316.705 64.8838 315.97 65.9604 314.449 66.3364V66.6953C316.158 67.0713 316.944 68.2505 316.944 70.2671V74.8643C316.944 77.8037 315.474 79.2905 312.586 79.2905Z" fill="white"/>
<line x1="214.5" y1="9" x2="214.5" y2="79" stroke="white"/>
</g>
<defs>
<clipPath id="clip0_1008_7">
<rect width="355" height="89" fill="white"/>
</clipPath>
</defs>
</svg>
